<svg xmlns="http://www.w3.org/2000/svg" width="976" height="420" viewBox="0 0 976 420" role="img" aria-labelledby="title">
  <title id="title">jpFun</title>
  <style>
    .jpfun-wordmark { fill: var(--logo-wordmark, #003b30); }
    @media (prefers-color-scheme: dark) {
      .jpfun-wordmark { fill: var(--logo-wordmark, #e7f1eb); }
    }
  </style>
  <g fill="#20b653">
    <circle cx="211" cy="64" r="41"/>
    <path fill-rule="evenodd" d="
      M 196 121
      H 209
      C 222 121 228 129 224 144
      L 222 151
      L 324 124
      C 346 118 364 116 383 122
      C 420 132 442 161 442 198
      C 442 252 404 297 351 297
      C 329 297 310 291 292 279
      L 279 358
      C 277 372 271 379 258 379
      H 240
      C 228 379 222 372 224 359
      L 258 185
      L 213 197
      L 194 288
      C 182 347 146 380 91 380
      C 56 380 34 365 33 339
      C 32 316 49 297 71 297
      C 90 297 105 307 110 325
      C 124 318 134 303 140 280
      L 158 198
      L 144 201
      C 132 203 124 197 127 184
      C 130 172 143 166 165 163
      L 170 142
      C 173 128 181 121 196 121
      Z
      M 347 164
      C 321 164 304 186 304 211
      C 304 234 320 250 342 250
      C 369 250 390 230 390 204
      C 390 179 374 164 347 164
      Z
    "/>
  </g>
  <g class="jpfun-wordmark" fill="#003b30">
    <path d="
      M 548 106
      H 614
      Q 629 106 629 121
      V 134
      Q 629 149 614 149
      H 555
      C 542 149 535 156 535 170
      V 188
      H 603
      Q 618 188 618 203
      V 216
      Q 618 231 603 231
      H 534
      V 292
      Q 534 308 519 308
      H 501
      Q 486 308 486 293
      V 169
      C 486 132 508 106 548 106
      Z
    "/>
    <path d="
      M 653 164
      H 668
      Q 684 164 684 180
      V 243
      C 684 261 693 270 709 270
      C 725 270 735 260 735 243
      V 180
      Q 735 164 751 164
      H 767
      Q 782 164 782 180
      V 248
      C 782 286 755 310 710 310
      C 665 310 638 286 638 248
      V 180
      Q 638 164 653 164
      Z
    "/>
    <path d="
      M 816 165
      H 832
      Q 844 165 848 176
      C 860 167 875 162 891 162
      C 926 162 947 184 947 217
      V 293
      Q 947 308 932 308
      H 916
      Q 901 308 901 293
      V 226
      C 901 211 891 202 876 202
      C 861 202 848 213 848 229
      V 293
      Q 848 308 833 308
      H 816
      Q 801 308 801 293
      V 180
      Q 801 165 816 165
      Z
    "/>
  </g>
</svg>